<?xml version="1.0" encoding="UTF-8"?><svg id="Letters" xmlns="http://www.w3.org/2000/svg" viewBox="0 0 250 250"><defs><style>.cls-1{fill:none;stroke:#585959;stroke-miterlimit:10;stroke-width:5px;}.cls-2{fill:#af6d29;stroke-width:0px;}</style></defs><path id="A" class="cls-2" d="M141.45,157.29h-33.41l-27.35,82.96-46-30.7C54.66,141.33,74.64,73.1,94.62,4.88c9.42-1,19.87-1.66,31.19-1.69,10.75-.02,20.7.53,29.73,1.4,19.93,68.32,39.85,136.64,59.78,204.96l-45.73,30.6-28.14-82.86ZM175.25,237.25c11.54-8.28,23.08-16.56,34.62-24.83-10.23-35.07-20.42-70.16-30.58-105.26-9.95-34.38-19.86-68.76-29.74-103.16-16.52.58-33.04,1.17-49.56,1.75-20.07,69.52-40.15,139.04-60.22,208.56,11.83,7.65,23.67,15.29,35.5,22.94,9.52-28.79,19.05-57.57,28.57-86.36h42.03c9.79,28.79,19.58,57.57,29.37,86.36Z"/><circle id="O" class="cls-1" cx="125" cy="125" r="122.5"/></svg>