<?xml version="1.0" encoding="UTF-8"?><svg id="Letters" xmlns="http://www.w3.org/2000/svg" viewBox="0 0 288 288"><defs><style>.cls-1{fill:none;stroke:#585959;stroke-miterlimit:10;stroke-width:5px;}.cls-2{fill:#af6d29;stroke-width:0px;}</style></defs><path id="A" class="cls-2" d="M153.96,165.55h-20.24l-16.57,50.26-27.87-18.6c12.11-41.34,24.21-82.67,36.32-124.01,5.71-.61,12.04-1.01,18.9-1.02,6.51-.01,12.54.32,18.01.85,12.07,41.39,24.15,82.78,36.22,124.18l-27.71,18.54-17.05-50.2ZM174.44,213.99c6.99-5.02,13.99-10.03,20.98-15.05-6.2-21.25-12.37-42.51-18.53-63.77-6.03-20.83-12.03-41.66-18.02-62.5-10.01.35-20.02.71-30.03,1.06-12.16,42.12-24.32,84.24-36.48,126.36,7.17,4.63,14.34,9.26,21.51,13.9,5.77-17.44,11.54-34.88,17.31-52.32h25.46c5.93,17.44,11.86,34.88,17.79,52.32Z"/><circle id="O" class="cls-1" cx="144" cy="144" r="74.22"/></svg>